<?xml version="1.0" encoding="utf-8"?>
<!-- Generator: Adobe Illustrator 27.6.1, SVG Export Plug-In . SVG Version: 6.00 Build 0)  -->
<svg version="1.1" id="Layer_1" xmlns="http://www.w3.org/2000/svg" xmlns:xlink="http://www.w3.org/1999/xlink" x="0px" y="0px"
	 viewBox="0 0 1920 1920" style="enable-background:new 0 0 1920 1920;" xml:space="preserve">
<style type="text/css">
	.st0{clip-path:url(#SVGID_00000130647017385685718960000007042056197165011601_);}
	.st1{stroke:#000000;stroke-width:3;stroke-miterlimit:10;}
	.st2{stroke:#000000;stroke-width:6;stroke-miterlimit:10;}
</style>
<g>
	<defs>
		<rect id="SVGID_1_" y="11" width="1920" height="1920"/>
	</defs>
	<clipPath id="SVGID_00000090993716179933849650000009806206904704243337_">
		<use xlink:href="#SVGID_1_"  style="overflow:visible;"/>
	</clipPath>
	<g style="clip-path:url(#SVGID_00000090993716179933849650000009806206904704243337_);">
		<g>
			<polygon points="1724.81,1233.56 1724.81,1637.55 205.84,1637.55 205.84,1407.5 170.77,1416.9 170.77,1672.62 1759.88,1672.62 
				1759.88,1224.16 			"/>
			<polygon points="205.84,1302.95 205.84,118.58 1724.81,118.58 1724.81,1129 1759.88,1119.61 1759.88,83.51 170.77,83.51 
				170.77,1312.34 			"/>
		</g>
		<g>
			<path d="M305.59,178.77h19.75v286.27h-19.75V178.77z"/>
			<path d="M332.36,472.06h-33.78v-300.3h33.78V472.06z M312.6,458.03h5.73V185.79h-5.73V458.03z"/>
		</g>
		<g>
			<path d="M631.77,471.9L405.98,217.48l5.24-4.03l0.4,251.59h-19.35V172.73h1.21l225.79,256.43l-5.24,1.61l-0.4-252h18.95V471.9
				H631.77z"/>
			<path d="M639.59,478.91h-10.98L418.28,241.9l0.37,230.15h-33.39V165.71h11.39l210.32,238.86l-0.37-232.82h32.99V478.91z
				 M399.29,458.03h5.31l-0.37-231.96l-4.94-5.57V458.03z M611.77,438.8l13.79,15.54v-19.78L611.77,438.8z M418.25,220.73
				l188.77,212.71l-0.01-7.6L418.23,211.45L418.25,220.73z M621.03,420.54l4.54,5.16V185.79h-4.91L621.03,420.54z M399.29,189.93
				v23.85l12.52-9.63L399.29,189.93z"/>
		</g>
		<g>
			<path d="M804.73,178.77h187.49v18.95h-84.27v267.32h-19.75V197.73h-83.46V178.77z"/>
			<path d="M914.96,472.06h-33.78V204.74h-83.46v-32.98h201.51v32.98h-84.27V472.06z M895.21,458.03h5.73V190.71h84.27v-4.93H811.74
				v4.93h83.46V458.03z"/>
		</g>
		<g>
			<path d="M1003.51,322.31c0-20.16,3.76-39.04,11.29-56.65c7.52-17.6,18-33.2,31.45-46.77c13.44-13.57,28.96-24.19,46.57-31.85
				c17.6-7.66,36.49-11.49,56.65-11.49c20.16,0,39.11,3.83,56.85,11.49c17.74,7.66,33.33,18.28,46.77,31.85
				c13.44,13.57,23.99,29.17,31.65,46.77c7.66,17.61,11.49,36.49,11.49,56.65c0,20.16-3.83,39.04-11.49,56.65
				c-7.66,17.61-18.21,33.13-31.65,46.57c-13.44,13.44-29.03,23.93-46.77,31.45c-17.74,7.53-36.69,11.29-56.85,11.29
				c-20.16,0-39.05-3.63-56.65-10.89c-17.61-7.26-33.13-17.47-46.57-30.64c-13.45-13.17-23.93-28.63-31.45-46.37
				C1007.27,362.63,1003.51,343.28,1003.51,322.31z M1023.66,322.72c0,17.48,3.23,33.87,9.68,49.19
				c6.45,15.32,15.46,28.77,27.02,40.32c11.55,11.56,24.93,20.63,40.12,27.22c15.18,6.59,31.38,9.88,48.59,9.88
				c17.74,0,34.27-3.29,49.59-9.88c15.32-6.58,28.76-15.66,40.32-27.22c11.56-11.55,20.63-25,27.22-40.32
				c6.58-15.32,9.88-31.85,9.88-49.59c0-17.47-3.29-33.93-9.88-49.39c-6.59-15.46-15.66-29.03-27.22-40.72
				c-11.56-11.69-25-20.9-40.32-27.62c-15.32-6.72-31.72-10.08-49.19-10.08c-17.74,0-34.27,3.43-49.59,10.28
				c-15.32,6.85-28.7,16.2-40.12,28.02c-11.43,11.83-20.3,25.47-26.61,40.92C1026.82,289.19,1023.66,305.52,1023.66,322.72z"/>
			<path d="M1149.46,475.28c-20.99,0-40.95-3.84-59.32-11.42c-18.37-7.57-34.79-18.38-48.81-32.12
				c-14.04-13.75-25.15-30.12-33-48.64c-7.86-18.52-11.84-38.98-11.84-60.8c0-21.02,3.99-41.01,11.85-59.41
				c7.84-18.34,18.91-34.81,32.92-48.95c14.01-14.15,30.42-25.37,48.75-33.35c18.41-8.01,38.41-12.08,59.45-12.08
				c21.02,0,41.08,4.06,59.63,12.07c18.47,7.98,34.95,19.2,48.97,33.36c13.99,14.13,25.13,30.58,33.1,48.91
				c8.01,18.42,12.07,38.42,12.07,59.45c0,21.04-4.06,41.04-12.07,59.45c-7.97,18.33-19.12,34.72-33.12,48.73
				c-14.02,14.02-30.5,25.11-48.99,32.95C1190.53,471.3,1170.48,475.28,1149.46,475.28z M1149.46,182.56
				c-19.1,0-37.21,3.67-53.85,10.91c-16.7,7.26-31.63,17.48-44.38,30.36c-12.76,12.88-22.84,27.88-29.98,44.59
				c-7.12,16.65-10.72,34.78-10.72,53.89c0,19.93,3.61,38.54,10.73,55.32c7.13,16.81,17.19,31.64,29.9,44.1
				c12.73,12.48,27.64,22.29,44.33,29.17c16.67,6.87,34.83,10.36,53.98,10.36c19.13,0,37.33-3.61,54.11-10.73
				c16.82-7.13,31.81-17.21,44.55-29.95c12.76-12.76,22.91-27.7,30.18-44.41c7.24-16.63,10.91-34.75,10.91-53.85
				c0-19.09-3.67-37.21-10.91-53.85c-7.28-16.72-17.44-31.74-30.2-44.63c-12.76-12.88-27.75-23.09-44.57-30.35
				C1186.75,186.23,1168.56,182.56,1149.46,182.56z M1149.06,456.33c-18.1,0-35.38-3.52-51.38-10.46
				c-15.93-6.91-30.16-16.56-42.29-28.69c-12.14-12.13-21.74-26.45-28.52-42.55c-6.79-16.12-10.23-33.58-10.23-51.91
				c0-18.04,3.36-35.42,10-51.64c6.62-16.2,16.06-30.72,28.06-43.14c11.99-12.42,26.22-22.36,42.3-29.55
				c16.16-7.23,33.8-10.89,52.46-10.89c18.36,0,35.86,3.59,52.01,10.67c16.06,7.04,30.36,16.84,42.49,29.11
				c12.12,12.27,21.77,26.7,28.68,42.9c6.93,16.26,10.44,33.81,10.44,52.14c0,18.61-3.51,36.23-10.44,52.36
				c-6.92,16.09-16.58,30.39-28.7,42.51c-12.14,12.14-26.44,21.8-42.51,28.7C1185.29,452.82,1167.67,456.33,1149.06,456.33z
				 M1149.46,201.51c-16.67,0-32.39,3.25-46.73,9.67c-14.43,6.46-27.2,15.37-37.94,26.49c-10.76,11.14-19.22,24.16-25.16,38.7
				c-5.94,14.54-8.96,30.13-8.96,46.34c0,16.45,3.07,32.08,9.13,46.47c6.07,14.42,14.66,27.23,25.51,38.08
				c10.87,10.88,23.64,19.54,37.95,25.74c14.23,6.17,29.63,9.3,45.8,9.3c16.7,0,32.45-3.13,46.82-9.31
				c14.42-6.2,27.25-14.86,38.13-25.73c10.86-10.86,19.52-23.69,25.73-38.13c6.17-14.37,9.3-30.12,9.3-46.82
				c0-16.44-3.13-32.13-9.31-46.64c-6.21-14.57-14.88-27.54-25.75-38.54c-10.88-11-23.71-19.79-38.15-26.12
				C1181.47,204.71,1165.87,201.51,1149.46,201.51z"/>
		</g>
		<g>
			<path d="M1336.41,322.31c0-20.16,3.76-39.04,11.29-56.65c7.52-17.6,18-33.2,31.45-46.77c13.44-13.57,28.96-24.19,46.57-31.85
				c17.6-7.66,36.49-11.49,56.65-11.49s39.11,3.83,56.85,11.49c17.74,7.66,33.33,18.28,46.77,31.85
				c13.44,13.57,23.99,29.17,31.65,46.77c7.66,17.61,11.49,36.49,11.49,56.65c0,20.16-3.83,39.04-11.49,56.65
				c-7.66,17.61-18.21,33.13-31.65,46.57c-13.44,13.44-29.03,23.93-46.77,31.45c-17.74,7.53-36.69,11.29-56.85,11.29
				s-39.05-3.63-56.65-10.89c-17.61-7.26-33.13-17.47-46.57-30.64c-13.45-13.17-23.93-28.63-31.45-46.37
				C1340.17,362.63,1336.41,343.28,1336.41,322.31z M1356.57,322.72c0,17.48,3.23,33.87,9.68,49.19
				c6.45,15.32,15.46,28.77,27.02,40.32c11.55,11.56,24.93,20.63,40.12,27.22c15.18,6.59,31.38,9.88,48.59,9.88
				c17.74,0,34.27-3.29,49.59-9.88c15.32-6.58,28.76-15.66,40.32-27.22c11.56-11.55,20.63-25,27.22-40.32
				c6.58-15.32,9.88-31.85,9.88-49.59c0-17.47-3.29-33.93-9.88-49.39c-6.59-15.46-15.66-29.03-27.22-40.72
				c-11.56-11.69-25-20.9-40.32-27.62c-15.32-6.72-31.72-10.08-49.19-10.08c-17.74,0-34.27,3.43-49.59,10.28s-28.7,16.2-40.12,28.02
				c-11.43,11.83-20.3,25.47-26.61,40.92C1359.72,289.19,1356.57,305.52,1356.57,322.72z"/>
			<path d="M1482.36,475.28c-20.99,0-40.95-3.84-59.32-11.42c-18.37-7.57-34.79-18.38-48.81-32.12
				c-14.04-13.75-25.15-30.12-33-48.64c-7.86-18.52-11.84-38.98-11.84-60.8c0-21.02,3.99-41.01,11.85-59.41
				c7.84-18.34,18.91-34.81,32.92-48.95c14.01-14.15,30.42-25.37,48.75-33.35c18.41-8.01,38.41-12.08,59.45-12.08
				c21.02,0,41.08,4.06,59.63,12.07c18.47,7.98,34.95,19.2,48.97,33.36c13.99,14.13,25.13,30.58,33.1,48.91
				c8.01,18.42,12.07,38.42,12.07,59.45c0,21.04-4.06,41.04-12.07,59.45c-7.97,18.33-19.12,34.72-33.12,48.73
				c-14.02,14.02-30.5,25.11-48.99,32.95C1523.43,471.3,1503.38,475.28,1482.36,475.28z M1482.36,182.56
				c-19.1,0-37.21,3.67-53.85,10.91c-16.7,7.26-31.63,17.48-44.38,30.36c-12.76,12.88-22.84,27.88-29.98,44.59
				c-7.12,16.65-10.72,34.78-10.72,53.89c0,19.93,3.61,38.54,10.73,55.32c7.13,16.81,17.19,31.64,29.9,44.1
				c12.73,12.48,27.64,22.29,44.33,29.17c16.67,6.87,34.83,10.36,53.98,10.36c19.13,0,37.33-3.61,54.11-10.73
				c16.82-7.13,31.81-17.21,44.55-29.95c12.76-12.76,22.91-27.7,30.18-44.41c7.24-16.63,10.91-34.75,10.91-53.85
				c0-19.09-3.67-37.21-10.91-53.85c-7.28-16.72-17.44-31.74-30.2-44.63c-12.76-12.88-27.75-23.09-44.57-30.35
				C1519.65,186.23,1501.46,182.56,1482.36,182.56z M1481.96,456.33c-18.1,0-35.38-3.52-51.38-10.46
				c-15.93-6.91-30.16-16.56-42.29-28.69c-12.14-12.13-21.74-26.45-28.52-42.55c-6.79-16.12-10.23-33.58-10.23-51.91
				c0-18.04,3.36-35.42,10-51.64c6.62-16.2,16.06-30.72,28.06-43.14c11.99-12.42,26.22-22.36,42.3-29.55
				c16.16-7.23,33.8-10.89,52.46-10.89c18.36,0,35.86,3.59,52.01,10.67c16.06,7.04,30.36,16.84,42.49,29.11
				c12.12,12.27,21.77,26.7,28.68,42.9c6.93,16.26,10.44,33.81,10.44,52.14c0,18.61-3.51,36.23-10.44,52.36
				c-6.92,16.09-16.58,30.39-28.7,42.51c-12.14,12.14-26.44,21.8-42.51,28.7C1518.2,452.82,1500.58,456.33,1481.96,456.33z
				 M1482.36,201.51c-16.67,0-32.39,3.25-46.73,9.67c-14.43,6.46-27.2,15.37-37.94,26.49c-10.76,11.14-19.22,24.16-25.16,38.7
				c-5.94,14.54-8.96,30.13-8.96,46.34c0,16.45,3.07,32.08,9.13,46.47c6.07,14.42,14.66,27.23,25.51,38.08
				c10.87,10.88,23.64,19.54,37.95,25.74c14.23,6.17,29.63,9.3,45.8,9.3c16.7,0,32.45-3.13,46.82-9.31
				c14.42-6.2,27.25-14.86,38.13-25.73c10.86-10.86,19.52-23.69,25.73-38.13c6.17-14.37,9.3-30.12,9.3-46.82
				c0-16.44-3.13-32.13-9.31-46.64c-6.21-14.57-14.88-27.54-25.75-38.54c-10.88-11-23.71-19.79-38.15-26.12
				C1514.38,204.71,1498.77,201.51,1482.36,201.51z"/>
		</g>
		<g>
			<path class="st1" d="M500.22,1805.08c0,4-0.7,7.72-2.11,11.17c-1.41,3.45-3.38,6.45-5.93,8.99c-2.54,2.54-5.54,4.54-8.99,6
				c-3.45,1.45-7.22,2.18-11.31,2.18c-5.09,0-9.6-1.18-13.55-3.54c-3.95-2.36-6.7-5.26-8.24-8.72c0,0.91,0.02,1.8,0.07,2.66
				c0.05,0.86,0.07,1.8,0.07,2.79v31.88h-7.49v-80.65h7.22c0,0.27,0.02,0.86,0.07,1.77c0.05,0.91,0.07,1.93,0.07,3.07
				c0,1.13,0.02,2.29,0.07,3.47c0.05,1.18,0.07,2.23,0.07,3.13c1.73-3.36,4.5-6.31,8.31-8.85c3.82-2.54,8.36-3.82,13.63-3.82
				c4.08,0,7.83,0.71,11.24,2.11c3.41,1.41,6.36,3.36,8.86,5.86c2.5,2.5,4.45,5.49,5.86,8.99
				C499.52,1797.07,500.22,1800.91,500.22,1805.08z M492.18,1805.08c0-3-0.5-5.79-1.5-8.38c-1-2.59-2.43-4.81-4.29-6.67
				c-1.86-1.86-4.06-3.34-6.61-4.43c-2.54-1.09-5.31-1.63-8.31-1.63s-5.79,0.54-8.38,1.63c-2.59,1.09-4.84,2.57-6.74,4.43
				c-1.91,1.86-3.41,4.06-4.5,6.61c-1.09,2.54-1.64,5.31-1.64,8.31c0,3,0.55,5.77,1.64,8.31c1.09,2.54,2.59,4.77,4.5,6.67
				c1.91,1.91,4.15,3.41,6.74,4.5c2.59,1.09,5.38,1.64,8.38,1.64s5.77-0.55,8.31-1.64c2.54-1.09,4.75-2.59,6.61-4.5
				c1.86-1.91,3.29-4.13,4.29-6.67C491.68,1810.71,492.18,1807.99,492.18,1805.08z"/>
			<path class="st1" d="M517.48,1758.08c0-1.54,0.56-2.84,1.7-3.88c1.13-1.04,2.38-1.57,3.75-1.57c1.36,0,2.59,0.53,3.68,1.57
				c1.09,1.05,1.64,2.34,1.64,3.88c0,1.64-0.55,2.95-1.64,3.95c-1.09,1-2.32,1.5-3.68,1.5c-1.36,0-2.61-0.5-3.75-1.5
				C518.04,1761.03,517.48,1759.71,517.48,1758.08z M526.6,1832.33h-7.5v-54.5h7.5V1832.33z"/>
			<path class="st1" d="M587.25,1821.57l4.64,5.58c-2.45,2-5.2,3.54-8.24,4.63c-3.05,1.09-6.29,1.64-9.74,1.64
				c-3.99,0-7.74-0.75-11.24-2.25c-3.5-1.5-6.54-3.52-9.13-6.06c-2.59-2.54-4.63-5.54-6.13-8.99c-1.5-3.45-2.25-7.13-2.25-11.04
				c0-3.9,0.75-7.61,2.25-11.1c1.5-3.49,3.54-6.51,6.13-9.06c2.59-2.54,5.63-4.57,9.13-6.07c3.5-1.5,7.24-2.25,11.24-2.25
				c3.45,0,6.72,0.55,9.81,1.64c3.09,1.09,5.86,2.63,8.31,4.63c-0.73,1-1.5,1.93-2.32,2.79c-0.82,0.86-1.64,1.8-2.45,2.79
				c-3.72-3-8.17-4.5-13.35-4.5c-3,0-5.79,0.54-8.38,1.63c-2.58,1.09-4.84,2.57-6.74,4.43c-1.91,1.86-3.41,4.08-4.5,6.67
				s-1.64,5.38-1.64,8.38c0,2.91,0.55,5.63,1.64,8.18c1.09,2.54,2.59,4.77,4.5,6.67c1.91,1.91,4.16,3.41,6.74,4.5
				c2.59,1.09,5.38,1.64,8.38,1.64C579.08,1826.06,583.53,1824.56,587.25,1821.57z"/>
			<path class="st1" d="M646.41,1776.47l4.5,4.63c-3.45,3.18-6.74,6.29-9.88,9.33c-3.13,3.05-6.42,6.16-9.88,9.33l23.71,32.56h-8.72
				l-20.3-27.52l-8.86,8.17v19.35h-7.5v-104.36h7.5v76.02c5.08-4.72,9.99-9.29,14.71-13.69
				C636.41,1785.89,641.32,1781.29,646.41,1776.47z"/>
			<path class="st1" d="M727.99,1858.49h-7.9c1.18-2.45,2.25-4.75,3.2-6.88c0.95-2.13,1.88-4.29,2.79-6.47
				c0.91-2.18,1.89-4.47,2.93-6.88c1.04-2.41,2.25-5.11,3.61-8.1c-4.18-8.36-8.27-17.05-12.26-26.09c-4-9.04-8.08-17.78-12.26-26.23
				h8.04c2.72,5.45,5.09,10.35,7.08,14.71s3.79,8.33,5.38,11.92c1.59,3.59,3.02,6.93,4.29,10.01c1.27,3.09,2.54,6.09,3.81,8.99
				c1.27-2.91,2.52-5.9,3.75-8.99c1.22-3.09,2.63-6.43,4.22-10.01c1.59-3.59,3.38-7.56,5.38-11.92c2-4.36,4.36-9.26,7.08-14.71h8.04
				L727.99,1858.49z"/>
			<path class="st1" d="M774.74,1805.08c0-3.9,0.75-7.61,2.25-11.1c1.5-3.49,3.54-6.54,6.13-9.13c2.59-2.59,5.63-4.63,9.13-6.13
				c3.5-1.5,7.24-2.25,11.24-2.25c4,0,7.74,0.75,11.24,2.25c3.49,1.5,6.51,3.54,9.06,6.13s4.54,5.63,6,9.13
				c1.45,3.5,2.18,7.2,2.18,11.1c0,3.91-0.73,7.59-2.18,11.04c-1.45,3.45-3.47,6.45-6.06,8.99c-2.59,2.54-5.61,4.57-9.06,6.06
				c-3.45,1.5-7.22,2.25-11.31,2.25c-4,0-7.72-0.7-11.17-2.11c-3.46-1.41-6.47-3.38-9.06-5.93c-2.59-2.54-4.63-5.54-6.13-8.99
				C775.49,1812.94,774.74,1809.17,774.74,1805.08z M782.24,1805.08c0,2.91,0.55,5.63,1.64,8.18c1.09,2.54,2.59,4.77,4.5,6.67
				c1.91,1.91,4.13,3.41,6.68,4.5c2.54,1.09,5.26,1.64,8.17,1.64c2.91,0,5.65-0.55,8.24-1.64c2.59-1.09,4.84-2.59,6.74-4.5
				c1.91-1.91,3.41-4.13,4.5-6.67c1.09-2.54,1.64-5.27,1.64-8.18c0-2.91-0.55-5.65-1.64-8.24c-1.09-2.59-2.59-4.84-4.5-6.75
				c-1.91-1.91-4.15-3.4-6.74-4.5c-2.59-1.09-5.34-1.63-8.24-1.63c-2.91,0-5.63,0.54-8.17,1.63c-2.54,1.09-4.77,2.59-6.68,4.5
				c-1.91,1.91-3.41,4.16-4.5,6.75C782.78,1799.43,782.24,1802.18,782.24,1805.08z"/>
			<path class="st1" d="M897.66,1833.01h-6.27l-0.81-14.72c-1.91,4.55-4.82,8.22-8.72,11.04c-3.91,2.81-8.63,4.22-14.17,4.22
				c-5.36,0-9.61-1.5-12.74-4.5c-3.14-3-4.79-6.95-4.97-11.85v-39.37h7.49v36.78c0.18,3.09,1.27,5.72,3.27,7.9
				c2,2.18,4.99,3.36,8.99,3.54c2.81,0,5.47-0.48,7.97-1.43c2.49-0.95,4.65-2.27,6.47-3.95c1.82-1.68,3.27-3.7,4.36-6.06
				c1.09-2.36,1.64-4.95,1.64-7.77v-29.02h7.5V1833.01z"/>
			<path class="st1" d="M948.5,1786.01c-2.72,0-5.33,0.43-7.83,1.29c-2.5,0.86-4.7,2.07-6.61,3.61c-1.91,1.55-3.43,3.43-4.57,5.65
				c-1.13,2.23-1.7,4.7-1.7,7.43v28.34h-7.49v-54.5h6.4l0.68,14.03c1.09-2.36,2.49-4.47,4.22-6.33c1.73-1.86,3.61-3.45,5.65-4.77
				c2.05-1.32,4.18-2.33,6.4-3.07c2.23-0.72,4.34-1.09,6.34-1.09L948.5,1786.01z"/>
			<path class="st1" d="M1004.73,1785.33v-7.36h9.4v-16.08c0-11.08,2.65-19.42,7.97-25c5.31-5.58,12.38-8.56,21.19-8.93v7.22
				c-6.72,0.18-12.01,2.61-15.87,7.29c-3.86,4.68-5.79,11.15-5.79,19.42v16.08h17.85v7.36h-17.85v47h-7.49v-47H1004.73z"/>
			<path class="st1" d="M1050.75,1805.36c0-3.9,0.75-7.61,2.25-11.1c1.5-3.5,3.54-6.56,6.13-9.2s5.61-4.7,9.06-6.2
				c3.45-1.5,7.13-2.25,11.03-2.25c2.72,0,5.27,0.37,7.63,1.09c2.36,0.73,4.47,1.71,6.33,2.93c1.86,1.23,3.43,2.59,4.7,4.09
				c1.27,1.5,2.22,2.98,2.86,4.43l0.55-11.31h6.95v54.5h-7.5v-5.58c0-1,0.02-1.95,0.07-2.86c0.05-0.9,0.07-1.77,0.07-2.58
				c-0.63,1.55-1.59,3.02-2.86,4.43c-1.27,1.41-2.84,2.7-4.7,3.88c-1.86,1.18-3.97,2.11-6.33,2.79c-2.36,0.68-4.95,1.02-7.77,1.02
				c-4.09,0-7.88-0.75-11.38-2.25c-3.5-1.5-6.5-3.52-8.99-6.06c-2.5-2.54-4.48-5.52-5.93-8.93
				C1051.48,1812.78,1050.75,1809.17,1050.75,1805.36z M1058.25,1804.95c0,3,0.55,5.77,1.64,8.31c1.09,2.54,2.59,4.77,4.5,6.67
				c1.91,1.91,4.16,3.41,6.74,4.5c2.59,1.09,5.38,1.64,8.38,1.64c3,0,5.79-0.55,8.38-1.64c2.59-1.09,4.84-2.59,6.74-4.5
				c1.91-1.91,3.41-4.13,4.5-6.67c1.09-2.54,1.64-5.31,1.64-8.31c0-2.91-0.54-5.63-1.64-8.17c-1.09-2.54-2.58-4.77-4.5-6.68
				c-1.91-1.91-4.15-3.4-6.74-4.5c-2.59-1.09-5.38-1.63-8.38-1.63c-3,0-5.79,0.54-8.38,1.63c-2.58,1.09-4.84,2.57-6.74,4.43
				c-1.91,1.86-3.41,4.06-4.5,6.61C1058.79,1799.18,1058.25,1801.95,1058.25,1804.95z"/>
			<path class="st1" d="M1152.77,1835.6c-2.54-4.82-4.95-9.63-7.22-14.44c-2.27-4.81-4.5-9.62-6.68-14.44
				c-2.18-4.81-4.38-9.62-6.61-14.44c-2.23-4.81-4.56-9.63-7.01-14.44h8.04c2.72,5.45,5.04,10.24,6.95,14.37
				c1.91,4.13,3.56,7.86,4.97,11.17c1.41,3.32,2.7,6.4,3.88,9.26c1.18,2.86,2.4,5.74,3.68,8.65c1.27-2.91,2.47-5.79,3.61-8.65
				c1.14-2.86,2.41-5.95,3.82-9.26c1.41-3.32,3.07-7.04,4.97-11.17c1.91-4.13,4.22-8.92,6.95-14.37h8.04
				c-4.91,9.72-9.47,19.34-13.69,28.88C1162.24,1816.25,1157.67,1825.88,1152.77,1835.6z"/>
			<path class="st1" d="M1191.3,1805.08c0-3.9,0.75-7.61,2.25-11.1c1.5-3.49,3.54-6.54,6.13-9.13c2.59-2.59,5.63-4.63,9.13-6.13
				c3.5-1.5,7.24-2.25,11.24-2.25c4,0,7.74,0.75,11.24,2.25c3.49,1.5,6.51,3.54,9.06,6.13s4.54,5.63,6,9.13
				c1.45,3.5,2.18,7.2,2.18,11.1c0,3.91-0.73,7.59-2.18,11.04c-1.45,3.45-3.47,6.45-6.06,8.99c-2.59,2.54-5.61,4.57-9.06,6.06
				c-3.45,1.5-7.22,2.25-11.31,2.25c-4,0-7.72-0.7-11.17-2.11c-3.46-1.41-6.47-3.38-9.06-5.93c-2.59-2.54-4.63-5.54-6.13-8.99
				C1192.04,1812.94,1191.3,1809.17,1191.3,1805.08z M1198.79,1805.08c0,2.91,0.55,5.63,1.64,8.18c1.09,2.54,2.59,4.77,4.5,6.67
				c1.91,1.91,4.13,3.41,6.68,4.5c2.54,1.09,5.26,1.64,8.17,1.64c2.91,0,5.65-0.55,8.24-1.64c2.59-1.09,4.84-2.59,6.74-4.5
				c1.91-1.91,3.41-4.13,4.5-6.67c1.09-2.54,1.64-5.27,1.64-8.18c0-2.91-0.55-5.65-1.64-8.24c-1.09-2.59-2.59-4.84-4.5-6.75
				c-1.91-1.91-4.15-3.4-6.74-4.5c-2.59-1.09-5.34-1.63-8.24-1.63c-2.91,0-5.63,0.54-8.17,1.63c-2.54,1.09-4.77,2.59-6.68,4.5
				c-1.91,1.91-3.41,4.16-4.5,6.75C1199.33,1799.43,1198.79,1802.18,1198.79,1805.08z"/>
			<path class="st1" d="M1297.4,1786.01c-2.72,0-5.33,0.43-7.83,1.29c-2.5,0.86-4.7,2.07-6.61,3.61c-1.91,1.55-3.43,3.43-4.57,5.65
				c-1.13,2.23-1.7,4.7-1.7,7.43v28.34h-7.49v-54.5h6.4l0.68,14.03c1.09-2.36,2.49-4.47,4.22-6.33c1.73-1.86,3.61-3.45,5.65-4.77
				c2.05-1.32,4.18-2.33,6.4-3.07c2.23-0.72,4.34-1.09,6.34-1.09L1297.4,1786.01z"/>
			<path class="st1" d="M1313.44,1758.08c0-1.54,0.56-2.84,1.7-3.88c1.13-1.04,2.38-1.57,3.75-1.57c1.36,0,2.59,0.53,3.68,1.57
				c1.09,1.05,1.64,2.34,1.64,3.88c0,1.64-0.55,2.95-1.64,3.95c-1.09,1-2.32,1.5-3.68,1.5c-1.36,0-2.61-0.5-3.75-1.5
				C1314.01,1761.03,1313.44,1759.71,1313.44,1758.08z M1322.57,1832.33h-7.5v-54.5h7.5V1832.33z"/>
			<path class="st1" d="M1351.29,1753.99h7.5v24.39h16.21v6.81h-16.21v47.14h-7.5v-47.14h-10.9v-6.81h10.9V1753.99z"/>
			<path class="st1" d="M1435.45,1825.79c-2.63,2.36-5.72,4.22-9.26,5.58c-3.54,1.36-7.22,2.04-11.04,2.04
				c-3.99,0-7.74-0.75-11.24-2.25c-3.5-1.5-6.54-3.52-9.13-6.06c-2.59-2.54-4.63-5.54-6.13-8.99c-1.5-3.45-2.25-7.13-2.25-11.04
				c0-3.9,0.75-7.61,2.25-11.1c1.5-3.49,3.54-6.54,6.13-9.13c2.59-2.59,5.61-4.63,9.06-6.13c3.45-1.5,7.13-2.25,11.03-2.25
				c6,0,11.19,1.82,15.6,5.45c4.41,3.63,7.65,8.27,9.74,13.9c-3.09,1.18-6.52,2.52-10.29,4.02c-3.77,1.5-7.63,3.05-11.58,4.63
				c-3.95,1.59-7.88,3.18-11.78,4.77c-3.91,1.59-7.54,3.07-10.9,4.43c1.64,3.73,4.16,6.72,7.56,8.99c3.41,2.27,7.29,3.41,11.65,3.41
				c2.91,0,5.68-0.5,8.31-1.5c2.63-1,4.86-2.36,6.68-4.08L1435.45,1825.79z M1430.82,1793.91c-1.55-3.09-3.73-5.52-6.54-7.29
				c-2.82-1.77-5.95-2.65-9.4-2.65c-2.91,0-5.63,0.57-8.17,1.7c-2.54,1.14-4.77,2.65-6.68,4.57c-1.91,1.91-3.41,4.11-4.5,6.61
				c-1.09,2.5-1.64,5.15-1.64,7.97c0,1.45,0.14,2.72,0.41,3.81c2.81-1.18,5.81-2.4,8.99-3.68c3.18-1.27,6.36-2.56,9.54-3.88
				c3.18-1.32,6.31-2.59,9.4-3.81S1428.19,1794.91,1430.82,1793.91z"/>
			<path class="st1" d="M1487.2,1783.01l-4.09,5.31c-0.73-1-2.16-1.93-4.29-2.79c-2.14-0.86-4.29-1.29-6.47-1.29
				c-0.91,0-1.89,0.14-2.93,0.41c-1.04,0.28-2,0.71-2.86,1.29c-0.86,0.59-1.59,1.36-2.18,2.32c-0.59,0.95-0.89,2.11-0.89,3.47
				c0,2.09,0.63,3.75,1.91,4.97c1.27,1.23,2.86,2.3,4.77,3.2c1.91,0.91,3.97,1.77,6.2,2.59c2.22,0.82,4.29,1.82,6.2,3
				c1.91,1.18,3.49,2.7,4.77,4.56c1.27,1.87,1.91,4.25,1.91,7.15c0,4.54-1.55,8.38-4.63,11.51c-3.09,3.14-7.5,4.7-13.22,4.7
				c-3.09,0-6.25-0.54-9.47-1.64c-3.23-1.09-5.84-2.81-7.83-5.17c0.36-0.37,0.81-0.86,1.36-1.5c0.55-0.64,1.04-1.23,1.5-1.77
				c0.45-0.55,0.84-1.02,1.16-1.43c0.32-0.41,0.52-0.61,0.61-0.61c0.27,0.45,0.86,0.95,1.77,1.5c0.9,0.55,1.95,1.07,3.13,1.57
				c1.18,0.5,2.45,0.93,3.82,1.29c1.36,0.37,2.68,0.55,3.95,0.55c1.09,0,2.25-0.16,3.47-0.48c1.23-0.32,2.36-0.84,3.41-1.57
				c1.04-0.73,1.89-1.64,2.52-2.72c0.63-1.09,0.95-2.41,0.95-3.95c0-2.09-0.64-3.74-1.91-4.97c-1.27-1.22-2.86-2.29-4.77-3.2
				c-1.91-0.91-4-1.75-6.27-2.52c-2.27-0.77-4.36-1.75-6.27-2.93c-1.91-1.18-3.5-2.72-4.77-4.63c-1.27-1.91-1.91-4.36-1.91-7.36
				c0-2.72,0.5-5.02,1.5-6.88c1-1.86,2.27-3.41,3.82-4.63c1.54-1.22,3.29-2.11,5.24-2.66c1.95-0.54,3.83-0.81,5.65-0.81
				c2.36,0,4.95,0.5,7.77,1.5C1482.65,1779.38,1485.1,1780.92,1487.2,1783.01z"/>
		</g>
		<path class="st2" d="M2516.45,1140.22c-3.53-0.29-5.76,0.87-6.67,3.53c-1.35,37.39-13.25,70.63-35.7,99.78
			c-22.44,29.13-52.66,48.93-90.66,59.44c-18.1,5-37.39,7.59-57.86,7.79c-20.49,0.19-41.62-2.44-63.43-7.87
			c-21.8-5.44-43.94-14.08-66.38-25.93l-0.03,0.07c-43.02-21.47-84.92-41.31-125.67-59.51c-41.41-18.48-81.63-33.32-120.68-44.52
			c-39.06-11.19-77.08-17.58-114.05-19.13c-36.98-1.57-72.38,3.64-106.22,15.62c-33.86,11.98-66.53,31.9-98.03,59.76
			c-31.51,27.86-61.32,65.75-89.44,113.65c-9.37,15.62-19.8,31.63-31.24,48.04c-11.46,16.4-23.17,31.5-35.15,45.3
			c-11.98,13.79-24.21,25.78-36.71,35.93c-12.5,10.16-24.61,17.19-36.33,21.09c-11.72,3.9-22.65,3.9-32.81,0
			c-10.15-3.9-18.88-12.88-26.16-26.95c-5.21-9.9-10.29-20.83-15.23-32.81c-4.95-11.97-9.37-23.69-13.28-35.15
			c-3.9-11.45-7.29-22.13-10.15-32.03c-2.87-9.88-5.08-17.7-6.63-23.43l96.85-158.56c2.59-2.6,2.85-5.34,0.78-8.21
			c-2.09-2.85-4.7-2.46-7.81,1.18l-96.07,149.96c-5.75-23.43-12.77-45.3-21.09-65.61c-8.34-20.31-17.85-37.88-28.51-52.72
			c-10.68-14.83-22.65-26.56-35.93-35.15c-13.28-8.6-27.46-12.9-42.57-12.9c-2.59,0-4.54,1.45-5.85,4.3
			c-1.3,2.87,0.39,6.13,5.08,9.76c14.58,8.87,27.6,21.88,39.05,39.06c8.36,12.54,15.95,25.72,22.79,39.5
			c-10.28,26.06-23.96,48.44-41.14,67.11c-17.96,19.53-37.88,35.15-59.76,46.86c-21.87,11.71-44.78,19.53-68.73,23.44
			c-23.96,3.9-46.87,3.77-68.74-0.4c7.81-21.87,13.79-48.04,17.96-78.5c4.16-30.46,5.34-61.31,3.52-92.55
			c-1.83-31.24-7.03-60.66-15.63-88.27c-8.58-27.59-21.75-49.72-39.44-66.39c-14.58-13.54-29.81-21.48-45.69-23.83
			c-15.89-2.34-30.85-0.12-44.91,6.65c-14.06,6.77-26.43,17.84-37.11,33.2c-10.68,15.36-18.35,34.25-23.03,56.63
			c-2.62,14.06-3.26,28.65-1.95,43.74c1.28,15.11,4.8,30.99,10.54,47.64c-11.98,0-18.75,5.47-20.3,16.41
			c-2.41,7.53-4.46,15.46-6.17,23.76c-13.87,30.11-27.82,55.65-41.86,76.61c-16.94,25.26-33.72,45.69-50.39,61.31
			c-16.67,15.63-33.2,27.48-49.59,35.54c-16.4,8.07-32.68,14.18-48.82,18.36c7.29-18.22,12.11-37.11,14.46-56.64
			c2.34-19.52,2.34-38.26,0-56.23c-2.35-17.98-7.03-34.23-14.06-48.82c-7.03-14.58-16.01-25.89-26.95-33.98
			c-10.94-8.07-23.96-12.36-39.06-12.88c-15.11-0.51-32.03,4.17-50.77,14.05c-13.02,7.3-24.74,16.41-35.15,27.34
			c-10.42,10.93-19.91,23.17-28.51,36.71c-8.59,13.55-16.54,27.86-23.83,42.96c-7.29,15.1-14.05,30.21-20.3,45.31
			c-0.53-23.44-0.14-51.03,1.17-82.8c1.3-31.76,2.46-65.86,3.52-102.32c17.18-14.58,36.06-33.2,56.63-55.85
			c20.57-22.65,41.52-48.04,62.89-76.15c21.34-28.11,42.18-58.45,62.48-91c20.31-32.53,38.53-65.86,54.69-99.97
			c16.13-34.11,29.28-68.21,39.44-102.33c10.15-34.09,16.01-67.29,17.57-99.59c1.57-38.53-3.9-71.73-16.4-99.6
			c-12.5-27.85-28.9-48.16-49.21-60.92c-20.31-12.75-42.57-16.91-66.79-12.5c-24.21,4.44-46.74,19.14-67.56,44.14
			c-16.68,19.8-31.38,44.52-44.14,74.2c-12.75,29.68-23.96,62.49-33.58,98.42c-9.65,35.93-17.85,74.47-24.61,115.6
			c-6.76,41.14-12.5,82.93-17.18,125.36c-4.68,42.45-8.33,85.02-10.93,127.71c-2.62,42.7-4.43,83.57-5.47,122.63
			c-19.79,34.36-44.13,60.28-73.04,77.72c-28.9,17.45-60.66,28.78-95.29,33.98c-34.63,5.21-71.09,5.34-109.36,0.39
			c-34.75-4.49-79.83-14.53-116.29-24.34c-35-11.69-73.36-19.93-115.1-26.16c-30.37-4.88-58.69-6.25-84.97-4.14
			c-26.27,2.13-50.41,6.7-72.41,13.72c-21.98,7.03-41.91,16.22-59.79,27.59c-17.85,11.36-33.11,24.22-45.76,38.57
			c-13.87,15.15-25.2,31.5-34.01,49.05c-8.81,17.57-14.9,35.57-18.3,54c-3.39,18.44-3.67,37.29-0.87,56.52
			c2.82,19.24,9.23,37.92,19.21,56.01c1.72,1.97,4.2,2.22,7.43,0.78c3.23-1.44,4.62-3.54,4.14-6.3
			c-19.09-32.83-25.44-67.32-19.07-103.5c6.39-36.17,22.77-68.75,49.19-97.74c25.06-27.66,59.16-49,102.3-64.04
			c43.13-15.04,93.41-18.56,150.8-10.59c33.39,5.23,72.68,16.41,103.47,25.66l-0.02,0.08c3.1,0.94,6.21,1.83,9.31,2.73
			c0.66,0.2,1.34,0.41,1.98,0.6l0-0.02c33.31,9.58,67.04,17.08,101.18,22.45c38.02,6,74.86,7.17,110.52,3.52
			c35.68-3.63,69.26-13.27,100.77-28.9c31.51-15.62,59.24-39.3,83.19-71.07c-1.04,33.85-1.57,65.35-1.57,94.5
			c0,29.18,0.27,54.94,0.78,77.33c0,6.25,1.69,11.19,5.08,14.83c3.38,3.64,7.42,5.59,12.1,5.86c4.7,0.26,9.24-0.91,13.68-3.52
			c4.42-2.62,7.67-6.77,9.76-12.5c5.72-14.06,12.1-29.29,19.13-45.69c7.03-16.4,15.23-32.41,24.6-48.04
			c9.38-15.62,19.79-30.06,31.24-43.35c11.45-13.28,24.21-23.83,38.28-31.64c15.63-8.32,28.77-11.19,39.44-8.58
			c10.66,2.6,19.14,8.85,25.39,18.75c6.25,9.89,10.66,22.39,13.27,37.49c2.6,15.1,3.64,30.99,3.13,47.64
			c-0.53,16.67-2.48,33.2-5.86,49.59c-3.39,16.41-7.69,30.59-12.88,42.57c-15.62,3.63-31.51,7.55-47.64,11.72
			c-16.15,4.16-32.55,12.75-49.21,25.78c-18.23,14.06-29.43,27.2-33.59,39.44c-4.17,12.23-3.52,22.12,1.95,29.68
			c5.47,7.55,15.23,11.59,29.29,12.11c14.06,0.51,30.46-3.91,49.21-13.28c19.79-9.38,37.36-21.88,52.72-37.49
			c15.36-15.63,28.24-35.15,38.66-58.59c17.18-3.64,34.76-9.37,52.72-17.18c17.96-7.81,36.06-19.91,54.29-36.31
			c18.22-16.41,36.33-38.01,54.29-64.84c9.99-14.9,19.93-32.03,29.84-51.37c-0.69,9.73-0.88,19.57-0.56,29.5
			c0.51,15.89,2.08,31.63,4.68,47.26c2.6,15.62,6.52,30.2,11.72,43.73c11.45,26.03,25.89,43.09,43.35,51.17
			c17.44,8.06,35.16,9.88,53.12,5.47c17.96-4.44,35.15-13.95,51.54-28.51c16.41-14.58,29.29-31.76,38.67-51.56
			c23.43,4.68,47.76,4.95,73.02,0.78c25.25-4.16,49.61-12.61,73.04-25.38c23.43-12.75,44.78-29.41,64.04-49.99
			c16.31-17.42,29.44-37.55,39.41-60.39c0.27,0.6,0.55,1.19,0.81,1.8c8.58,19.53,15.49,38.8,20.7,57.81
			c5.2,19.02,9.1,34.76,11.72,47.26l-67.96,107.78c-1.57,3.64-1.68,6.76-0.39,9.38c1.3,2.59,2.48,2.59,3.52,0l68.73-103.1
			c2.08,7.29,4.7,16,7.81,26.16c3.13,10.15,6.89,20.7,11.33,31.63c4.42,10.93,9.5,21.61,15.23,32.03
			c5.72,10.41,12.23,19.53,19.53,27.33c7.28,7.81,15.49,13.68,24.6,17.58c9.11,3.91,19.14,4.81,30.08,2.73
			c16.13-3.64,32.14-11.2,48.03-22.65c15.89-11.46,31.5-25.39,46.87-41.79c15.35-16.4,29.81-34.36,43.35-53.89
			c13.54-19.53,26.04-39.18,37.49-58.97c26.56-46.34,54.93-83.19,85.14-110.53c30.19-27.33,61.96-46.72,95.3-58.19
			c33.32-11.45,67.96-16.4,103.88-14.83c35.93,1.57,73.15,7.81,111.7,18.75c38.53,10.93,78.23,25.65,119.11,44.13
			c40.53,18.34,81.97,38.08,124.3,59.23c23.33,12.29,46.18,22.09,68.52,28.03c22.38,5.94,44.19,8.79,65.41,8.55
			c21.21-0.24,41.02-3.06,59.47-8.45c19.17-5.44,36.97-13.47,53.37-24.08s30.6-23.26,42.65-37.97
			c12.03-14.72,21.54-31.28,28.52-49.69c6.96-18.41,11.18-37.99,12.64-58.78C2522.01,1141.94,2519.96,1140.53,2516.45,1140.22z
			 M379.4,1127.67c2.08-34.09,4.94-70.16,8.6-108.18c3.63-38,8.32-76.94,14.05-116.77c5.73-39.84,12.63-78.36,20.71-115.6
			c8.06-37.22,17.57-71.99,28.5-104.28c10.94-32.28,23.7-59.62,38.28-82.02c17.7-27.59,36.71-43.86,57.02-48.81
			c20.31-4.94,38.92-1.3,55.84,10.93c16.92,12.24,30.72,31.24,41.41,57.02c10.66,25.78,15.49,55.33,14.45,88.65
			c-1.05,30.73-6.65,62.76-16.8,96.07c-10.15,33.34-23.05,66.39-38.66,99.2c-15.63,32.81-33.34,64.97-53.11,96.47
			c-19.8,31.51-39.98,60.92-60.54,88.27c-20.58,27.33-40.89,52.07-60.92,74.2c-20.05,22.13-37.89,40.23-53.51,54.28
			C375.75,1191.6,377.31,1161.79,379.4,1127.67z M515.7,1515.09c-9.65,11.73-19.67,21.74-30.08,30.08
			c-16.67,13.01-30.2,20.7-40.62,23.05c-10.42,2.34-17.18,1.17-20.3-3.52c-3.13-4.68-2.35-11.86,2.34-21.48
			c4.7-9.65,14.32-19.91,28.91-30.86c11.97-10.42,25.25-17.84,39.83-22.26c14.58-4.43,29.41-7.94,44.52-10.54
			C533.53,1491.53,525.33,1503.38,515.7,1515.09z M940.21,1439.34c-11.46,11.72-23.56,19.26-36.31,22.65
			c-12.77,3.38-25.26,1.17-37.49-6.63c-12.24-7.81-23.05-23.94-32.41-48.44c-7.3-19.77-11.6-41.25-12.89-64.44
			c-1.31-23.16,0.65-45.42,5.86-66.78c11.97,28.11,30.06,53.78,54.28,76.94c24.21,23.17,53.51,38.93,87.88,47.26
			C961.3,1414.47,951.66,1427.62,940.21,1439.34z M975.37,1388.18c-38.54-8.33-69.66-24.22-93.35-47.66
			c-23.7-23.43-40.75-50.51-51.16-81.24c-1.05-4.68-1.83-8.59-2.35-11.72c-0.53-3.12-2.86-7.03-7.02-11.72
			c-4.18-16.66-7.17-33.05-8.98-49.21c-1.83-16.13-1.45-31.76,1.17-46.86c3.12-19.79,9.5-36.58,19.13-50.38
			c9.64-13.79,20.7-23.83,33.2-30.08c12.5-6.25,25.91-8.46,40.23-6.65c14.32,1.83,27.99,8.21,41.01,19.14
			c17.18,14.59,29.94,35.41,38.28,62.49c8.33,27.07,13.01,55.98,14.06,86.7c1.03,30.73-0.67,61.19-5.08,91.39
			C990.07,1342.61,983.68,1367.86,975.37,1388.18z"/>
	</g>
</g>
</svg>
